<svg preserveAspectRatio="none" width="100%" height="100%" overflow="visible" style="display: block;" viewBox="0 0 184 71" fill="none" xmlns="http://www.w3.org/2000/svg">
<g id="Logo: naviga-yachting">
<g id="Group">
<path id="Vector" d="M18.8089 50.2107H15.4219V21.4234H18.0047L18.509 22.1462L33.1473 43.1468L33.1881 23.1212V21.4302H36.5751V23.1212L36.5342 48.5266V50.2175H33.9514L33.4403 49.4948L18.8021 28.4941V50.2107H18.8089Z" fill="var(--fill-0, #6D6E70)"/>
<path id="Vector_2" d="M44.453 50.2107H40.773L41.7884 47.8379L52.7876 22.4394L53.251 21.4234H55.4522L55.9156 22.4394L66.9147 47.8379L67.9301 50.2107H64.2501L63.7867 49.1948L54.3482 27.3895L44.9096 49.1948L44.4462 50.2107H44.453Z" fill="var(--fill-0, #6D6E70)"/>
<path id="Vector_3" d="M107.926 21.4234H111.313V50.2107H107.926V21.4234Z" fill="var(--fill-0, #6D6E70)"/>
<path id="Vector_4" d="M129.754 34.1261H142.361V35.8171C142.361 39.9081 141.046 43.3787 138.429 46.2288C135.976 48.8811 133.073 50.2107 129.713 50.2107C126.326 50.1834 123.382 48.8402 120.868 46.1878C118.271 43.365 116.976 39.9081 116.976 35.8171C117.004 31.7533 118.319 28.2827 120.908 25.4054C123.389 22.753 126.326 21.4234 129.713 21.4234C131.628 21.4234 133.523 21.8871 135.383 22.8212C137.782 24.0349 139.486 25.644 140.501 27.6486L137.455 29.1691C137.087 28.4941 136.569 27.8259 135.887 27.1781C134.081 25.569 132.023 24.7781 129.706 24.8053C127.308 24.8326 125.222 25.7804 123.444 27.6418C121.385 29.8169 120.356 32.5374 120.356 35.8102C120.356 38.6331 121.161 41.1013 122.769 43.2218C124.629 45.6219 126.946 46.822 129.706 46.822C132.214 46.7947 134.429 45.7515 136.351 43.6923C138.102 41.7763 138.975 39.7104 138.975 37.508H129.747V34.1193L129.754 34.1261Z" fill="var(--fill-0, #6D6E70)"/>
<path id="Vector_5" d="M148.543 50.2107H144.863L145.878 47.8379L156.877 22.4394L157.34 21.4234H159.542L160.005 22.4394L171.004 47.8379L172.02 50.2107H168.34L167.876 49.1948L158.438 27.3895L148.999 49.1948L148.536 50.2107H148.543Z" fill="var(--fill-0, #6D6E70)"/>
</g>
<path id="Vector_6" d="M45.0119 21.9348L56.6788 12.1845C57.1218 11.8299 57.8646 11.9254 58.1508 12.3754L82.2276 49.5698C82.6433 50.2107 83.7881 50.1766 84.1425 49.5152L104.035 12.5868C104.314 12.0686 105.112 11.9049 105.664 12.2527L117.958 21.1507C119.034 21.8257 119.157 19.862 118.217 19.0574L103.347 4.90243C102.822 4.45923 101.909 4.58878 101.602 5.14789L83.645 37.9035C83.2838 38.5649 82.1321 38.5921 81.7233 37.9444L60.9517 5.07289C60.5973 4.51378 59.6501 4.43878 59.1662 4.9297L44.4667 19.9438C43.7511 20.6802 44.1873 22.5894 45.0119 21.928V21.9348Z" fill="var(--fill-0, #00A69C)"/>
<g id="Group_2">
<path id="Vector_7" d="M19.8516 61.1065L19.0815 61.3383C18.8566 60.4042 18.3182 59.9406 17.4732 59.9406C16.853 59.9406 16.3692 60.2065 16.0353 60.7315C15.7354 61.202 15.5923 61.8293 15.5923 62.6066C15.5923 63.5134 15.7831 64.2089 16.1716 64.6862C16.4987 65.0953 16.9348 65.2998 17.4732 65.2998C18.3659 65.2998 18.9247 64.8225 19.1496 63.8748L19.9061 64.1271C19.5108 65.3339 18.6999 65.9407 17.4732 65.9407C16.6009 65.9407 15.9194 65.6066 15.4287 64.9316C14.9926 64.3384 14.7813 63.5748 14.7813 62.627C14.7813 61.5497 15.0607 60.6974 15.6264 60.0837C16.1102 59.5587 16.7304 59.2928 17.4732 59.2928C18.0933 59.2928 18.6181 59.4633 19.0406 59.811C19.4222 60.1178 19.6948 60.5542 19.8584 61.1065H19.8516Z" fill="var(--fill-0, #808184)"/>
<path id="Vector_8" d="M27.6068 56.3814V60.6019C28.3224 59.7292 29.0856 59.2996 29.8966 59.2996C30.4622 59.2996 30.912 59.4769 31.2391 59.8383C31.5253 60.1587 31.6753 60.5679 31.6753 61.0724V65.7839H30.8779V61.4065C30.8779 60.4724 30.4827 60.0019 29.7058 60.0019C28.9766 60.0019 28.2815 60.4383 27.6136 61.3179V65.7771H26.8299V56.3745H27.6136L27.6068 56.3814Z" fill="var(--fill-0, #808184)"/>
<path id="Vector_9" d="M39.0557 60.9224C39.4373 59.8383 40.2687 59.2928 41.5499 59.2928C43.0492 59.2928 43.792 59.9951 43.792 61.3997V63.6361C43.792 64.4816 43.8465 65.1975 43.9487 65.7907H43.2127C43.1582 65.5453 43.1105 65.1771 43.0696 64.6793C42.5108 65.5248 41.7476 65.9476 40.7799 65.9476C40.1052 65.9476 39.5941 65.7567 39.2397 65.368C38.9399 65.0407 38.7899 64.6248 38.7899 64.1134C38.7899 62.9679 39.5055 62.2725 40.9298 62.0338C41.4886 61.9384 42.1905 61.8702 43.0287 61.8293V61.4883C43.0287 60.8883 42.8993 60.4656 42.6335 60.2337C42.4018 60.0292 42.0338 59.9269 41.5295 59.9269C40.6231 59.9269 40.0439 60.3497 39.7849 61.202L39.0489 60.936L39.0557 60.9224ZM43.0287 62.402C42.395 62.4156 41.7476 62.4838 41.0933 62.6066C40.0779 62.8111 39.5736 63.302 39.5736 64.0657C39.5736 64.4816 39.7031 64.7953 39.9689 65.0203C40.2074 65.2248 40.5209 65.3271 40.9161 65.3271C41.768 65.3271 42.4699 64.8703 43.0287 63.9566V62.4088V62.402Z" fill="var(--fill-0, #808184)"/>
<path id="Vector_10" d="M54.2459 59.2928L54.1846 60.0769C53.7416 60.0769 53.3259 60.2678 52.9511 60.6497C52.5967 61.0042 52.331 61.4747 52.147 62.0679V65.7771H51.3769V59.4428H52.1265V61.086C52.3719 60.4519 52.7058 59.9815 53.1283 59.6678C53.4759 59.4087 53.8507 59.286 54.2527 59.286L54.2459 59.2928Z" fill="var(--fill-0, #808184)"/>
<path id="Vector_11" d="M62.1443 57.1791V59.4496H63.739V60.0837H62.1443V64.2021C62.1443 64.9521 62.4578 65.3203 63.0847 65.3203C63.3573 65.3203 63.6299 65.2862 63.9093 65.2248L63.8548 65.8657C63.589 65.9135 63.2892 65.9339 62.9553 65.9339C61.8921 65.9339 61.3606 65.4089 61.3606 64.3521V60.0769H60.2702V59.4428H61.3606V57.3496L62.1443 57.1723V57.1791Z" fill="var(--fill-0, #808184)"/>
<path id="Vector_12" d="M75.5218 62.6816H70.9286C70.9286 63.5679 71.1398 64.2498 71.5692 64.7271C71.9304 65.1225 72.387 65.3203 72.939 65.3203C73.8521 65.3203 74.445 64.8634 74.7313 63.9566L75.4673 64.2361C75.0311 65.368 74.1861 65.9339 72.9253 65.9339C72.0394 65.9339 71.3375 65.5998 70.8264 64.9248C70.3698 64.3316 70.1449 63.5611 70.1449 62.6202C70.1449 61.5497 70.4379 60.6974 71.0172 60.0769C71.5078 59.5519 72.1212 59.286 72.8504 59.286C73.6886 59.286 74.3564 59.6065 74.8471 60.2542C75.2901 60.8338 75.5081 61.5702 75.5081 62.4634V62.6679L75.5218 62.6816ZM74.7381 62.0884C74.6835 61.352 74.4655 60.7997 74.0975 60.4178C73.7772 60.0906 73.3751 59.9269 72.8776 59.9269C72.312 59.9269 71.8486 60.1451 71.4942 60.5883C71.1807 60.9701 71.0036 61.4679 70.9558 62.0884H74.7381Z" fill="var(--fill-0, #808184)"/>
<path id="Vector_13" d="M85.5736 59.2928L85.5123 60.0769C85.0693 60.0769 84.6536 60.2678 84.2788 60.6497C83.9244 61.0042 83.6587 61.4747 83.4747 62.0679V65.7771H82.7046V59.4428H83.4542V61.086C83.6996 60.4519 84.0335 59.9815 84.456 59.6678C84.8036 59.4087 85.1784 59.286 85.5804 59.286L85.5736 59.2928Z" fill="var(--fill-0, #808184)"/>
<path id="Vector_14" d="M107.729 61.5156C107.647 62.1565 107.504 62.7497 107.292 63.2952C107.102 63.793 106.87 64.1884 106.604 64.4748C106.918 64.8157 107.211 65.0407 107.49 65.1498C107.722 65.2385 108.035 65.2862 108.424 65.2862L108.226 65.9203H108.049C107.585 65.9203 107.204 65.8385 106.904 65.6817C106.652 65.5521 106.386 65.3203 106.1 64.9998C105.405 65.6339 104.546 65.9544 103.524 65.9544C102.624 65.9544 101.895 65.6748 101.357 65.1157C100.887 64.6316 100.648 64.0316 100.648 63.3225C100.648 62.6134 100.839 62.0474 101.22 61.5838C101.548 61.1883 102.038 60.8406 102.706 60.5338C102.229 59.7974 101.997 59.1292 101.997 58.5155C101.997 57.9019 102.215 57.4314 102.652 57.0496C103.026 56.7223 103.483 56.5518 104.015 56.5518C104.635 56.5518 105.125 56.7359 105.487 57.1177C105.793 57.445 105.95 57.8678 105.95 58.3791C105.95 58.9587 105.752 59.4428 105.35 59.8178C104.982 60.1587 104.417 60.4588 103.647 60.7247C104.457 61.9724 105.309 63.0975 106.195 64.093C106.618 63.4861 106.897 62.5725 107.02 61.3383L107.742 61.5156H107.729ZM102.992 60.9565C102.365 61.277 101.936 61.6315 101.697 62.0202C101.493 62.3543 101.391 62.777 101.391 63.2884C101.391 63.9089 101.623 64.4202 102.1 64.8157C102.508 65.1635 103.013 65.3407 103.599 65.3407C104.451 65.3407 105.153 65.0885 105.698 64.5839C104.703 63.4657 103.803 62.2588 102.992 60.9497V60.9565ZM103.36 60.2542C104.11 59.9747 104.621 59.6815 104.88 59.361C105.098 59.0951 105.207 58.7473 105.207 58.3178C105.207 57.9496 105.084 57.6564 104.839 57.4314C104.614 57.2337 104.342 57.1314 104.008 57.1314C103.619 57.1314 103.292 57.2746 103.04 57.5609C102.822 57.8064 102.713 58.1064 102.713 58.4678C102.713 58.7814 102.767 59.0746 102.87 59.361C102.965 59.5996 103.129 59.8996 103.353 60.261L103.36 60.2542Z" fill="var(--fill-0, #00A69C)"/>
<path id="Vector_15" d="M128.091 60.7929L127.328 61.0588C127.089 60.2951 126.572 59.9133 125.781 59.9133C125.304 59.9133 124.936 60.0156 124.677 60.2269C124.452 60.411 124.343 60.6429 124.343 60.9292C124.343 61.2838 124.452 61.5429 124.677 61.7133C124.875 61.8633 125.229 61.9997 125.733 62.1088L126.238 62.2179C127.021 62.402 127.56 62.6406 127.853 62.9338C128.119 63.1998 128.255 63.5816 128.255 64.0725C128.255 64.6521 128.03 65.1157 127.58 65.4498C127.158 65.7703 126.578 65.9339 125.849 65.9339C124.575 65.9339 123.743 65.4226 123.348 64.3998L124.111 64.1066C124.391 64.9112 124.977 65.3135 125.863 65.3135C126.449 65.3135 126.885 65.1771 127.164 64.9112C127.376 64.7066 127.485 64.4475 127.485 64.1475C127.485 63.7589 127.376 63.4725 127.151 63.302C126.94 63.1384 126.551 62.9952 125.979 62.8656L125.474 62.7497C124.725 62.5793 124.214 62.3406 123.941 62.0338C123.716 61.7815 123.6 61.4338 123.6 60.9974C123.6 60.4656 123.805 60.0428 124.227 59.736C124.616 59.4428 125.14 59.2996 125.801 59.2996C126.946 59.2996 127.71 59.7974 128.098 60.7997L128.091 60.7929Z" fill="var(--fill-0, #808184)"/>
<path id="Vector_16" d="M135.226 60.9224C135.608 59.8383 136.439 59.2928 137.721 59.2928C139.22 59.2928 139.963 59.9951 139.963 61.3997V63.6361C139.963 64.4816 140.017 65.1975 140.119 65.7907H139.383C139.329 65.5453 139.281 65.1771 139.24 64.6793C138.681 65.5248 137.918 65.9476 136.951 65.9476C136.276 65.9476 135.765 65.7567 135.41 65.368C135.111 65.0407 134.961 64.6248 134.961 64.1134C134.961 62.9679 135.676 62.2725 137.1 62.0338C137.659 61.9384 138.361 61.8702 139.199 61.8293V61.4883C139.199 60.8883 139.07 60.4656 138.804 60.2337C138.572 60.0292 138.204 59.9269 137.7 59.9269C136.794 59.9269 136.215 60.3497 135.956 61.202L135.22 60.936L135.226 60.9224ZM139.199 62.402C138.566 62.4156 137.918 62.4838 137.264 62.6066C136.249 62.8111 135.744 63.302 135.744 64.0657C135.744 64.4816 135.874 64.7953 136.14 65.0203C136.378 65.2248 136.692 65.3271 137.087 65.3271C137.939 65.3271 138.641 64.8703 139.199 63.9566V62.4088V62.402Z" fill="var(--fill-0, #808184)"/>
<path id="Vector_17" d="M148.324 56.3814V65.7839H147.541V56.3814H148.324Z" fill="var(--fill-0, #808184)"/>
<path id="Vector_18" d="M160.884 62.6816H156.291C156.291 63.5679 156.502 64.2498 156.932 64.7271C157.293 65.1225 157.749 65.3203 158.301 65.3203C159.215 65.3203 159.807 64.8634 160.094 63.9566L160.83 64.2361C160.393 65.368 159.548 65.9339 158.288 65.9339C157.402 65.9339 156.7 65.5998 156.189 64.9248C155.732 64.3316 155.507 63.5611 155.507 62.6202C155.507 61.5497 155.8 60.6974 156.38 60.0769C156.87 59.5519 157.484 59.286 158.213 59.286C159.051 59.286 159.719 59.6065 160.209 60.2542C160.652 60.8338 160.871 61.5702 160.871 62.4634V62.6679L160.884 62.6816ZM160.1 62.0884C160.046 61.352 159.828 60.7997 159.46 60.4178C159.14 60.0906 158.737 59.9269 158.24 59.9269C157.674 59.9269 157.211 60.1451 156.857 60.5883C156.543 60.9701 156.366 61.4679 156.318 62.0884H160.1Z" fill="var(--fill-0, #808184)"/>
<path id="Vector_19" d="M172.251 60.7929L171.488 61.0588C171.249 60.2951 170.732 59.9133 169.941 59.9133C169.464 59.9133 169.096 60.0156 168.837 60.2269C168.612 60.411 168.503 60.6429 168.503 60.9292C168.503 61.2838 168.612 61.5429 168.837 61.7133C169.035 61.8633 169.389 61.9997 169.893 62.1088L170.398 62.2179C171.181 62.402 171.72 62.6406 172.013 62.9338C172.279 63.1998 172.415 63.5816 172.415 64.0725C172.415 64.6521 172.19 65.1157 171.74 65.4498C171.318 65.7703 170.738 65.9339 170.009 65.9339C168.735 65.9339 167.903 65.4226 167.508 64.3998L168.271 64.1066C168.551 64.9112 169.137 65.3135 170.023 65.3135C170.609 65.3135 171.045 65.1771 171.324 64.9112C171.536 64.7066 171.645 64.4475 171.645 64.1475C171.645 63.7589 171.536 63.4725 171.311 63.302C171.1 63.1384 170.711 62.9952 170.139 62.8656L169.634 62.7497C168.885 62.5793 168.374 62.3406 168.101 62.0338C167.876 61.7815 167.76 61.4338 167.76 60.9974C167.76 60.4656 167.965 60.0428 168.387 59.736C168.776 59.4428 169.3 59.2996 169.961 59.2996C171.106 59.2996 171.87 59.7974 172.258 60.7997L172.251 60.7929Z" fill="var(--fill-0, #808184)"/>
</g>
</g>
</svg>
