<svg preserveAspectRatio="none" width="100%" height="100%" overflow="visible" style="display: block;" viewBox="0 0 19.9993 20" fill="none" xmlns="http://www.w3.org/2000/svg">
<path id="Union" d="M17.4494 0.439902C18.0328 -0.146311 18.9782 -0.146306 19.5617 0.439902C20.1452 1.02655 20.1452 1.97826 19.5617 2.5649L12.1124 10.0532L19.4562 17.436C20.0392 18.0226 20.0394 18.9735 19.4562 19.56C18.8727 20.1466 17.9264 20.1465 17.3429 19.56L9.99916 12.1772L2.65736 19.56C2.07385 20.1467 1.1276 20.1467 0.544084 19.56C-0.0393497 18.9735 -0.0391809 18.0227 0.544084 17.436L7.88686 10.0532L0.437638 2.5649C-0.145879 1.97826 -0.145879 1.02655 0.437638 0.439902C1.02111 -0.14668 1.96739 -0.146588 2.55092 0.439902L10.0001 7.92818L17.4494 0.439902Z" fill="var(--fill-0, #CDCDCD)"/>
</svg>
