<svg preserveAspectRatio="none" width="100%" height="100%" overflow="visible" style="display: block;" viewBox="0 0 48 48" fill="none" xmlns="http://www.w3.org/2000/svg">
<g id="icons8-facetime 1">
<path id="Vector" d="M25.8 15.6H14.2C12.2 15.6 10.5 17.3 10.5 19.3V28.8C10.5 30.8 12.2 32.5 14.2 32.5H25.8C27.8 32.5 29.5 30.8 29.5 28.8V19.3C29.5 17.2 27.8 15.6 25.8 15.6Z" fill="var(--fill-0, white)"/>
<path id="Vector_2" d="M34.9 16.4L31 19.8C30.8 20 30.6 20.3 30.6 20.6V27.3C30.6 27.6 30.7 27.9 31 28.1L34.9 31.6C35.8 32.4 37.3 31.8 37.3 30.5V17.5C37.3 16.2 35.9 15.5 34.9 16.4Z" fill="var(--fill-0, white)"/>
<path id="Vector_3" d="M35 6H13C9.1 6 6 9.1 6 13V35C6 38.9 9.1 42 13 42H35C38.9 42 42 38.9 42 35V13C42 9.1 38.9 6 35 6ZM29 28.5C29 30.4 27.4 32 25.5 32H14.5C12.6 32 11 30.4 11 28.5V19.5C11 17.6 12.6 16 14.5 16H25.5C27.4 16 29 17.6 29 19.5V28.5ZM37 29.9C37 31 35.7 31.6 34.8 30.9L31.3 27.8C31.1 27.6 31 27.3 31 27V21C31 20.7 31.1 20.4 31.3 20.3L34.8 17.2C35.6 16.5 37 17 37 18.2V29.9Z" fill="var(--fill-0, #00FF00)"/>
</g>
</svg>
