<svg preserveAspectRatio="none" width="100%" height="100%" overflow="visible" style="display: block;" viewBox="0 0 40 31.628" fill="none" xmlns="http://www.w3.org/2000/svg">
<g id="Group 25">
<path id="Vector" d="M0 9.30198V22.3252L4.65116 23.2554L9.30232 22.3252V9.30198L4.65116 8.37175L0 9.30198Z" fill="var(--fill-0, #1E88E5)"/>
<path id="Vector_2" d="M31.628 15.814V28.8372C31.628 30.3786 30.3787 31.6279 28.8373 31.6279H9.30245L8.37221 26.9767L9.30245 22.3256H22.3257V15.814L26.9768 14.8837L31.628 15.814Z" fill="var(--fill-0, #4CAF50)"/>
<path id="Vector_3" d="M31.628 2.79069V15.8139H22.3257V9.3023H9.30245L8.37221 4.65115L9.30245 0H28.8373C30.3787 0 31.628 1.2493 31.628 2.79069Z" fill="var(--fill-0, #FBC02D)"/>
<path id="Vector_4" d="M9.30232 22.3256V31.6279H2.79069C1.2493 31.6279 0 30.3786 0 28.8372V22.3256H9.30232Z" fill="var(--fill-0, #1565C0)"/>
<path id="Vector_5" d="M9.30232 0V9.3023H0L9.30232 0Z" fill="var(--fill-0, #E53935)"/>
<path id="Vector_6" d="M32.5581 15.8139L31.6279 23.6744L22.3256 15.8139L31.6279 7.95349L32.5581 15.8139Z" fill="var(--fill-0, #2E7D32)"/>
<path id="Vector_7" d="M40 2.89343V28.7352C40 29.5166 39.0884 29.9538 38.4837 29.4608L31.6279 23.6748V7.95388L38.4837 2.16785C39.0884 1.67483 40 2.11203 40 2.89343Z" fill="var(--fill-0, #4CAF50)"/>
</g>
</svg>
