<svg preserveAspectRatio="none" width="100%" height="100%" overflow="visible" style="display: block;" viewBox="0 0 48 48" fill="none" xmlns="http://www.w3.org/2000/svg">
<g id="icons8-whatsapp 1">
<path id="Vector" fill-rule="evenodd" clip-rule="evenodd" d="M4.868 43.303L7.562 33.468C5.9 30.59 5.026 27.324 5.027 23.979C5.032 13.514 13.548 5 24.014 5C29.093 5.002 33.859 6.979 37.444 10.566C41.028 14.154 43.002 18.922 43 23.994C42.996 34.459 34.478 42.974 24.014 42.974H24.006C20.829 42.973 17.706 42.176 14.933 40.663L4.868 43.303Z" fill="var(--fill-0, white)"/>
<path id="Vector_2" fill-rule="evenodd" clip-rule="evenodd" d="M4.868 43.803C4.736 43.803 4.608 43.751 4.513 43.655C4.388 43.528 4.339 43.343 4.386 43.172L7.025 33.536C5.389 30.63 4.526 27.33 4.528 23.98C4.532 13.238 13.273 4.5 24.014 4.5C29.224 4.502 34.119 6.531 37.798 10.213C41.477 13.896 43.502 18.79 43.5 23.994C43.496 34.735 34.754 43.474 24.014 43.474C20.825 43.473 17.67 42.686 14.87 41.197L4.995 43.786C4.953 43.798 4.911 43.803 4.868 43.803Z" fill="var(--fill-0, white)"/>
<path id="Vector_3" fill-rule="evenodd" clip-rule="evenodd" d="M24.014 5C29.093 5.002 33.859 6.979 37.444 10.566C41.028 14.154 43.002 18.922 43 23.994C42.996 34.459 34.478 42.974 24.014 42.974H24.006C20.829 42.973 17.706 42.176 14.933 40.663L4.868 43.303L7.562 33.468C5.9 30.59 5.026 27.324 5.027 23.979C5.032 13.514 13.548 5 24.014 5ZM24.014 4C12.998 4 4.032 12.962 4.027 23.979C4.026 27.346 4.876 30.664 6.488 33.601L3.903 43.04C3.809 43.385 3.905 43.753 4.157 44.007C4.347 44.199 4.604 44.304 4.868 44.304C4.953 44.304 5.038 44.293 5.122 44.271L14.809 41.731C17.637 43.199 20.807 43.974 24.006 43.975C35.03 43.975 43.996 35.012 44.001 23.995C44.003 18.656 41.926 13.636 38.153 9.86C34.378 6.083 29.357 4.002 24.014 4Z" fill="var(--fill-0, #CFD8DC)"/>
<path id="Vector_4" fill-rule="evenodd" clip-rule="evenodd" d="M35.176 12.832C32.196 9.85 28.235 8.207 24.019 8.206C15.315 8.206 8.236 15.282 8.232 23.98C8.231 26.961 9.065 29.863 10.645 32.376L11.021 32.973L9.426 38.794L15.399 37.228L15.976 37.57C18.398 39.008 21.176 39.768 24.008 39.769H24.014C32.712 39.769 39.791 32.692 39.794 23.993C39.795 19.778 38.156 15.814 35.176 12.832Z" fill="var(--fill-0, #40C351)"/>
<path id="Vector_5" fill-rule="evenodd" clip-rule="evenodd" d="M19.268 16.045C18.913 15.255 18.539 15.239 18.2 15.225C17.923 15.213 17.607 15.214 17.291 15.214C16.975 15.214 16.461 15.333 16.026 15.808C15.591 16.283 14.365 17.43 14.365 19.764C14.365 22.098 16.065 24.354 16.302 24.67C16.539 24.986 19.584 29.929 24.406 31.831C28.413 33.411 29.229 33.097 30.099 33.018C30.969 32.939 32.906 31.871 33.301 30.763C33.696 29.655 33.696 28.706 33.578 28.508C33.459 28.31 33.143 28.192 32.669 27.954C32.195 27.716 29.862 26.569 29.427 26.411C28.992 26.253 28.676 26.174 28.359 26.649C28.043 27.123 27.134 28.192 26.857 28.508C26.58 28.825 26.303 28.865 25.829 28.627C25.355 28.389 23.827 27.889 22.014 26.273C20.604 25.016 19.652 23.463 19.375 22.988C19.098 22.514 19.345 22.257 19.583 22.02C19.796 21.807 20.057 21.466 20.295 21.189C20.532 20.912 20.611 20.714 20.769 20.398C20.927 20.081 20.848 19.804 20.729 19.567C20.612 19.329 19.69 16.983 19.268 16.045Z" fill="var(--fill-0, white)"/>
</g>
</svg>
